<svg id="レイヤー_1" data-name="レイヤー 1" xmlns="http://www.w3.org/2000/svg" viewBox="0 0 248 249"><defs><style>.cls-1{fill:#4b4b4b;}.cls-2{fill:#c1272d;}.cls-3{fill:#006837;}.cls-4{fill:#fbb03b;}.cls-5{fill:none;}</style></defs><title>icon</title><rect class="cls-1" x="103.74" y="228.28" width="39.53" height="3.84"/><rect class="cls-2" x="103.74" y="212.74" width="39.53" height="3.83"/><rect class="cls-1" x="103.74" y="197.18" width="39.53" height="3.84"/><rect class="cls-1" x="103.74" y="181.63" width="18.62" height="3.84"/><path class="cls-1" d="M92.5,244.82V171.18a8.18,8.18,0,0,1,8.07-8.18h32.69a8.78,8.78,0,0,1,6.25,2.63l20.4,20.7a9.11,9.11,0,0,1,2.59,6.37v52.12a8.14,8.14,0,0,1-8.07,8.18H100.57A8.14,8.14,0,0,1,92.5,244.82Zm43.62-76.13v18.39c0,2,.76,2.77,2.71,2.77h18.11ZM158,244.82V193.93H136.41a4.07,4.07,0,0,1-2-.49,4.39,4.39,0,0,1-2.37-3.89v-22H100.57a3.52,3.52,0,0,0-3.25,2.18,3.64,3.64,0,0,0-.28,1.4v73.64a3.56,3.56,0,0,0,3.53,3.58h53.86A3.57,3.57,0,0,0,158,244.82Z" transform="translate(-4 -4)"/><rect class="cls-3" x="15.23" y="69.28" width="39.53" height="3.84"/><rect class="cls-3" x="15.23" y="53.74" width="39.53" height="3.83"/><rect class="cls-3" x="15.23" y="38.18" width="39.53" height="3.84"/><rect class="cls-3" x="36.13" y="22.63" width="18.62" height="3.84"/><path class="cls-3" d="M74,85.82V12.18A8.18,8.18,0,0,0,65.93,4H33.24A8.78,8.78,0,0,0,27,6.63L6.59,27.33A9.11,9.11,0,0,0,4,33.7V85.82A8.14,8.14,0,0,0,12.07,94H65.93A8.14,8.14,0,0,0,74,85.82ZM30.38,9.69V28.08c0,2-.76,2.77-2.71,2.77H9.56ZM8.53,85.82V34.93H30.09a4,4,0,0,0,2-.49,4.39,4.39,0,0,0,2.37-3.89V8.6H65.93a3.52,3.52,0,0,1,3.25,2.18,3.64,3.64,0,0,1,.28,1.4V85.82a3.56,3.56,0,0,1-3.53,3.58H12.07A3.57,3.57,0,0,1,8.53,85.82Z" transform="translate(-4 -4)"/><rect class="cls-4" x="104.23" y="69.28" width="39.53" height="3.84"/><rect class="cls-4" x="104.23" y="53.74" width="39.53" height="3.83"/><rect class="cls-4" x="104.23" y="38.18" width="39.53" height="3.84"/><rect class="cls-4" x="125.13" y="22.63" width="18.62" height="3.84"/><path class="cls-4" d="M163,85.82V12.18A8.18,8.18,0,0,0,154.93,4H122.24A8.78,8.78,0,0,0,116,6.63l-20.4,20.7A9.11,9.11,0,0,0,93,33.7V85.82A8.14,8.14,0,0,0,101.07,94h53.86A8.14,8.14,0,0,0,163,85.82ZM119.38,9.69V28.08c0,2-.76,2.77-2.71,2.77H98.56ZM97.53,85.82V34.93h21.56a4,4,0,0,0,2-.49,4.39,4.39,0,0,0,2.37-3.89V8.6h31.51a3.52,3.52,0,0,1,3.25,2.18,3.64,3.64,0,0,1,.28,1.4V85.82a3.56,3.56,0,0,1-3.53,3.58H101.07A3.57,3.57,0,0,1,97.53,85.82Z" transform="translate(-4 -4)"/><rect class="cls-2" x="193.23" y="69.28" width="39.53" height="3.84"/><rect class="cls-2" x="193.23" y="53.74" width="39.53" height="3.83"/><rect class="cls-2" x="193.23" y="38.18" width="39.53" height="3.84"/><rect class="cls-2" x="214.13" y="22.63" width="18.62" height="3.84"/><path class="cls-2" d="M252,85.82V12.18A8.18,8.18,0,0,0,243.93,4H211.24A8.78,8.78,0,0,0,205,6.63l-20.4,20.7A9.11,9.11,0,0,0,182,33.7V85.82A8.14,8.14,0,0,0,190.07,94h53.86A8.14,8.14,0,0,0,252,85.82ZM208.38,9.69V28.08c0,2-.76,2.77-2.71,2.77H187.56ZM186.53,85.82V34.93h21.56a4,4,0,0,0,2-.49,4.39,4.39,0,0,0,2.37-3.89V8.6h31.51a3.52,3.52,0,0,1,3.25,2.18,3.64,3.64,0,0,1,.28,1.4V85.82a3.56,3.56,0,0,1-3.53,3.58H190.07A3.57,3.57,0,0,1,186.53,85.82Z" transform="translate(-4 -4)"/><path class="cls-5" d="M121.05,111.11l-11.27,0H65.52v0H59.46A17.09,17.09,0,0,1,42.4,94.05h0v0h78.65Z" transform="translate(-4 -4)"/><path class="cls-1" d="M42.4,94v0h0a17.09,17.09,0,0,0,17.06,17.06h6.06v0h44.26l11.27,0V94H135v15.32h0a15.64,15.64,0,0,0-15.62,15.62V125l-10.41-.06H67V125H59.46a31,31,0,0,1-31-31h0v0Z" transform="translate(-4 -4)"/><path class="cls-2" d="M227.5,94.05h0a31,31,0,0,1-31,31H135v3.89h0v9.94h0v1.73h0v3.7l5.89-.66L128,163.18,115.16,143.6l5.89.66V132.05h0v-7.12a13.87,13.87,0,0,1,13.88-13.88h0l61.59,0h0A17.09,17.09,0,0,0,213.6,94.05h0v0h13.9Z" transform="translate(-4 -4)"/></svg>